<?xml version="1.0" encoding="utf-8" ?>
<svg xmlns="http://www.w3.org/2000/svg" xmlns:xlink="http://www.w3.org/1999/xlink" width="501" height="705">
	<clipPath id="cl_3">
		<rect y="-7.6293945e-06" width="501.05927" height="704.92151"/>
	</clipPath>
	<g clip-path="url(#cl_3)">
		<path fill="#D09A45" transform="translate(-260.846 -54.9077)" d="M496.939 77.7154C497.141 77.6837 497.342 77.6434 497.545 77.6204C503.054 76.9955 509.013 77.3777 514.58 77.381Q516.715 77.3882 518.85 77.441Q520.984 77.4938 523.117 77.5921Q525.25 77.6905 527.38 77.8345Q529.51 77.9784 531.637 78.1679Q533.764 78.3573 535.886 78.5922Q538.008 78.827 540.125 79.1072Q542.242 79.3873 544.352 79.7126Q546.462 80.0379 548.565 80.4082Q550.668 80.7786 552.762 81.1938Q554.856 81.609 556.941 82.0688Q559.026 82.5286 561.101 83.0329Q563.176 83.5372 565.239 84.0858Q567.303 84.6343 569.354 85.2268Q571.405 85.8193 573.443 86.4555Q575.482 87.0916 577.506 87.7712Q579.53 88.4509 581.539 89.1735Q583.548 89.8962 585.541 90.6617Q587.534 91.4272 589.511 92.2351Q591.487 93.043 593.446 93.8929Q595.405 94.7429 597.345 95.6344Q599.285 96.5261 601.205 97.4589Q603.126 98.3918 605.026 99.3655Q606.926 100.339 608.805 101.353Q610.684 102.367 612.541 103.421Q614.398 104.475 616.232 105.569Q618.066 106.662 619.876 107.795Q621.686 108.927 623.472 110.098Q625.257 111.268 627.017 112.477Q628.777 113.686 630.511 114.932Q632.245 116.178 633.952 117.461Q635.659 118.744 637.338 120.062Q639.017 121.381 640.667 122.736Q642.452 124.211 644.2 125.729Q645.949 127.248 647.659 128.809Q649.37 130.37 651.041 131.972Q652.713 133.575 654.344 135.218Q655.976 136.861 657.567 138.544Q659.157 140.227 660.706 141.948Q662.255 143.67 663.761 145.429Q665.267 147.188 666.729 148.983Q668.192 150.779 669.61 152.61Q671.027 154.441 672.4 156.306Q673.772 158.171 675.098 160.07Q676.424 161.968 677.703 163.899Q678.982 165.829 680.213 167.79Q681.444 169.752 682.626 171.743Q683.809 173.734 684.942 175.753Q686.075 177.773 687.158 179.819Q688.241 181.866 689.274 183.939Q690.306 186.012 691.287 188.109Q692.268 190.207 693.198 192.328Q694.127 194.449 695.004 196.592Q695.881 198.735 696.705 200.899Q697.529 203.063 698.299 205.247Q699.069 207.431 699.786 209.633Q700.502 211.835 701.164 214.054Q701.827 216.273 702.434 218.507Q703.041 220.742 703.593 222.991Q704.146 225.24 704.642 227.502Q705.139 229.763 705.58 232.037Q706.021 234.31 706.406 236.593Q706.791 238.877 707.119 241.169Q707.448 243.461 707.72 245.761Q707.992 248.06 708.208 250.366C709.389 262.913 708.688 275.554 708.747 288.137L708.856 362.828L708.881 488.216L708.868 524.574C708.921 545.013 709.096 565.704 704.516 585.75C697.944 614.511 681.808 643.105 662.975 665.732C635.645 698.568 594.329 721.543 552.678 729.959C545.047 731.501 537.366 732.228 529.625 732.937C517.733 733.234 506.196 733.779 494.308 732.623C456.068 728.907 417.942 711.952 388.377 687.672C380.793 681.444 373.198 674.869 366.567 667.624C339.907 638.498 320.584 598.541 316.83 559.083C315.32 543.212 315.926 527.019 315.888 511.089Q315.725 467.367 316.052 423.645L315.945 315.199C315.949 291.037 314.217 264.422 318.744 240.85C325.649 204.901 338.872 173.418 362.451 145.226C396.983 103.94 443.921 82.3092 496.939 77.7154ZM327.055 348.409Q342.467 341.063 358.071 334.134C365.758 330.731 373.789 327.805 381.192 323.826C394.125 316.874 406.947 304.791 411.911 290.696C413.889 285.081 414.201 279.746 411.67 274.238C410.811 272.368 409.608 270.586 408.521 268.84C401.767 272.628 373.532 289.842 366.74 287.655C365.607 287.291 364.935 286.831 364.452 285.72C363.965 284.598 363.877 283.768 364.07 282.55C366.443 278.56 371.497 277.316 375.616 275.746C365.011 271.163 357.083 264.574 352.684 253.61C348.993 244.41 349.403 233.377 353.34 224.295C355.813 218.589 360.225 213.972 366.11 211.795C374.01 208.874 383.439 210.629 390.813 214.283Q392.898 215.337 394.936 216.478C394.942 210.564 394.745 204.522 395.323 198.632C397.366 177.821 407.126 158.859 421.816 144.139C440.107 125.81 465.492 117.075 491.192 117.256C524.3 117.489 549.497 131.438 572.049 154.704C587.629 170.779 596.45 191.7 596.127 214.079C595.845 233.666 584.513 249.798 583.284 268.757C582.572 279.736 590.031 290.334 588.844 302.775C586.942 307.459 584.728 311.337 579.813 313.393C576.803 314.652 573.374 315.051 570.141 315.072C566.853 325.563 556.475 345.711 549.317 353.884Q548.436 354.907 547.461 355.841Q546.486 356.774 545.426 357.611Q544.366 358.447 543.231 359.178Q542.096 359.909 540.896 360.528C530.926 365.586 515.414 362.899 505.288 359.355C502.607 358.417 499.978 357.234 497.376 356.099C511.88 367.942 527.903 377.416 541.276 390.728C548.325 397.745 553.482 405.951 559.945 413.373C570.965 411.08 623.378 410.924 630.963 416.058C631.6 416.489 632.184 416.968 632.779 417.454C635.717 423.483 634.833 429.118 632.733 435.228C629.956 443.31 625.107 453.411 629.044 461.941C631.215 466.645 636.527 471.092 639.849 475.132C655.957 494.726 657.674 504.546 659.037 528.73C663.435 530.113 667.076 531.67 669.379 535.987C671.04 539.101 670.958 542.774 669.88 546.059C669.281 547.883 668.337 549.594 667.287 551.197C670.005 553.561 672.662 555.79 673.071 559.631C673.505 563.699 670.968 566.597 668.497 569.447C670.494 571.745 673.406 575.624 672.949 578.867C672.493 582.104 668.791 583.827 668.118 587.001C667.744 588.763 669.157 596.061 669.074 599.138C675.203 600.935 681.423 602.26 687.521 604.189C692.718 588.808 696.019 577.894 697.408 561.487C699.054 542.045 697.986 521.951 697.984 502.419L697.955 394.379L697.957 301.357C697.971 284.089 699.093 265.992 697.207 248.829C695.011 228.843 688.913 208.079 680.021 190.005C658.038 145.319 619.451 113.252 572.444 97.4116C555.51 91.7052 537.393 89.2959 519.603 88.7829C515.753 88.6719 511.626 88.2872 507.794 88.75C501.41 88.9153 495.02 88.9123 488.665 89.5977Q486.69 89.8044 484.72 90.0544Q482.749 90.3044 480.785 90.5975Q478.821 90.8908 476.864 91.227Q474.906 91.5633 472.957 91.9425Q471.007 92.3216 469.067 92.7435Q467.126 93.1654 465.195 93.6298Q463.264 94.0943 461.344 94.601Q459.424 95.1077 457.515 95.6564Q455.606 96.2052 453.71 96.7957Q451.814 97.3863 449.931 98.0183Q448.049 98.6504 446.18 99.3236Q444.312 99.9969 442.459 100.711Q440.606 101.425 438.769 102.18Q436.932 102.934 435.112 103.729Q433.292 104.524 431.489 105.359Q429.687 106.193 427.904 107.067Q426.121 107.941 424.357 108.854Q422.593 109.767 420.85 110.718Q419.107 111.67 417.385 112.659Q415.663 113.649 413.963 114.676Q412.263 115.703 410.586 116.767Q408.91 117.831 407.257 118.932Q405.604 120.033 403.975 121.169Q402.347 122.306 400.743 123.478Q399.14 124.651 397.563 125.858Q395.986 127.065 394.436 128.307Q392.886 129.548 391.364 130.823Q389.841 132.099 388.347 133.407Q386.853 134.715 385.388 136.056Q383.923 137.397 382.488 138.77Q381.053 140.143 379.648 141.547Q378.244 142.951 376.87 144.385C349.573 173.276 331.392 214.183 327.486 253.705C326.433 264.356 327.061 275.541 327.074 286.258Q327.22 317.334 327.055 348.409ZM327.171 358.851L327.045 537.085C339.391 533.287 352.439 531.445 364.629 527.448L364.664 526.861C365.036 519.587 364.415 512.106 364.298 504.814C364.104 492.675 364.154 480.526 364.126 468.386C364.11 461.39 363.532 453.59 364.738 446.694C365.217 443.952 365.89 441.298 367.986 439.361C369.114 438.952 369.998 438.874 371.14 439.381C372.781 440.109 373.681 442.237 374.112 443.859C375.742 449.994 375.411 516.717 374.615 525.396L418.784 514.382C425.12 512.767 431.661 511.363 437.893 509.403C440.352 508.941 442.866 508.496 445.098 507.311C449.606 504.916 453.49 501.021 457.276 497.645C468.701 487.456 479.193 475.523 491.458 466.412C497.838 461.673 504.903 458.562 512.282 455.722C529.519 449.086 539.613 449.118 556.979 455.792C557.015 453.693 557.158 451.418 556.75 449.353C554.784 439.383 546.697 430.972 550.255 418.658C537.9 398.594 520.336 385.867 501.627 372.378C497.085 369.104 492.747 365.253 488.066 362.222C486.183 367.308 466.328 406.924 463.417 409.719C460.58 410.239 458.416 408.646 456.166 407.115C450.63 403.349 444.758 400.183 439.149 396.536C425.752 387.824 413.821 377.863 402.945 366.142C399.587 362.523 396.224 358.695 393.268 354.741C391.175 351.941 381.459 336.452 380.163 335.976C372.069 339.595 363.871 342.967 355.776 346.579C346.24 350.833 336.979 355.218 327.171 358.851ZM433.374 244C434.477 250.916 436.416 257.827 442.518 262.085C446.311 264.732 450.944 265.117 455.37 264.197C457.452 263.765 460.593 262.468 462.503 263.693C462.298 266.159 458.665 269.082 456.754 270.631C453.783 273.037 450.13 274.211 446.313 273.673C439.615 272.728 433.802 267.941 429.98 262.557C426.71 257.95 425.224 253.389 424.508 247.801L412.042 254.584C419.868 269.542 427.419 274.303 421.642 292.874C416.503 309.394 403.235 321.201 389.567 330.925C401.621 353.62 421.33 372.778 442.724 386.645C448.432 390.039 454.441 393.24 459.742 397.249C461.744 390.702 480.298 354.636 484.468 349.328C478.887 344.506 459.272 325.524 458.65 318.519C458.542 317.299 459.113 315.953 459.951 315.09Q460.126 314.909 460.319 314.746Q460.512 314.584 460.72 314.443Q460.929 314.302 461.152 314.184Q461.374 314.066 461.608 313.971Q461.841 313.877 462.084 313.808Q462.326 313.738 462.574 313.695Q462.822 313.651 463.074 313.634Q463.325 313.617 463.577 313.626C465.348 313.701 466.464 314.711 467.49 316.027C468.733 317.621 469.666 319.44 470.898 321.046C483.634 337.632 497.736 349.256 518.998 352.323C525.692 353.288 533.215 354.154 539.002 349.899C544.032 346.2 547.015 339.859 549.961 334.51C546.554 334.177 540.466 334.662 538.157 331.824C537.198 330.646 536.88 329.531 536.878 328.02C537.527 326.451 538.374 325.064 540.039 324.398C545.914 322.05 552.432 328.864 557.062 320.977C558.13 319.156 558.977 316.916 559.583 314.896C555.988 313.737 552.197 312.666 550.416 308.934C550.093 308.257 550.183 308.203 550.169 307.416C551.165 305.86 552.438 305.255 554.244 304.912C560.119 303.796 573.851 308.111 577.476 303.003C579.442 300.231 578.967 296.742 578.283 293.615C576.676 286.259 573.527 278.417 573.081 270.921C572.322 258.174 581.741 238.697 584.597 225.83C586.247 218.401 585.988 210.605 585.957 203.039C580.721 202.955 574.4 202.234 569.283 203.207C561.024 204.091 552.741 204.951 544.588 206.572C532.144 209.047 520.478 212.68 508.349 216.288C483.062 223.81 457.006 232.121 433.374 244ZM429.115 573.654C420.661 566.93 416.444 560.151 415.272 549.38C414.706 544.187 414.742 531.662 415.902 526.726L415.499 526.141L414.257 526.043C396.088 530.59 377.906 535.375 359.691 539.706C348.797 542.296 337.626 544.112 326.887 547.29C327.742 554.194 327.886 561.131 328.867 568.027C331.212 584.51 336.803 599.365 343.778 614.332L429.115 573.654ZM684.132 613.546C675.391 611.134 663.846 607.082 654.837 608.277C650.747 608.663 637.752 607.63 635.158 610.561C633.878 612.007 633.538 614.261 633.247 616.107C630.748 631.958 625.904 634.36 610.673 636.721C598.28 638.643 566.256 639.085 555.98 631.092C550.538 626.86 547.784 617.664 546.488 611.146C531.683 613.336 491.239 616.941 482.259 628.425C481.365 629.568 480.816 630.993 481.245 632.451C482.578 636.982 491.584 639.892 495.557 641.532C526.539 654.822 591.508 655.339 625.386 652.694C638.233 651.691 650.942 649.057 663.797 648.213C667.724 641.922 671.844 635.675 675.485 629.217C678.367 624.105 680.567 618.204 684.132 613.546ZM531.577 460.532C521.898 463.745 510.776 466.636 502.06 471.949C490.03 479.281 473.957 496.564 462.544 506.552C458.823 509.807 455.024 513.586 450.566 515.792C443.369 519.354 434.351 520.894 426.567 522.883C425.312 534.279 422.154 551.093 429.849 560.883C432.857 564.71 436.826 566.679 441.256 568.359C449.334 564.138 457.074 559.429 465.306 555.462C474.131 551.21 483.384 548.776 491.412 542.92C497.773 538.28 511.27 520.783 516.604 519.491C523.852 517.735 541.162 523.57 548.532 525.82C552.053 526.895 555.874 528.476 559.54 528.804C561.368 528.967 563.46 529.004 564.423 527.268C562.523 522.712 537.377 513.176 531.568 510.719C528.278 509.327 522.673 508.967 521.228 505.098C520.788 503.921 520.94 502.757 521.632 501.712C522.425 500.515 523.958 499.577 525.4 499.454C530.739 498.998 538.928 503.24 543.945 505.194C551.572 507.742 558.569 511.514 565.72 515.143C568.495 516.552 571.444 518.347 574.389 519.337C575.65 519.761 576.049 519.693 577.302 519.391C578.296 518.392 578.46 518.314 578.7 516.945C575.215 510.729 546.295 497.716 538.432 495.477C534.815 494.447 527.893 493.919 525.689 490.622C524.985 489.571 524.8 488.322 525.199 487.115C525.631 485.811 526.562 485.041 527.776 484.495C534.119 481.639 554.805 491.262 561.489 494.473C566.254 496.761 571.007 499.529 575.458 502.389C578.829 504.556 581.867 507.113 585.599 508.694C587.192 509.369 588.385 509.796 590.081 509.239C590.505 508.026 590.305 507.33 589.769 506.157C585.198 496.155 556.774 484.401 546.721 481.223C541.488 479.569 526.516 477.387 524.489 473.14C524.061 472.244 524.186 471.885 524.227 470.929C525.182 469.191 526.998 468.049 528.909 467.568C535.05 466.023 559.062 474.224 565.32 477.052C570.229 479.27 574.974 482.154 579.462 485.12C581.564 486.509 583.72 488.755 586.12 489.51C586.999 488.967 587.292 488.47 587.543 487.424C587.963 485.676 586.971 483.93 585.895 482.637C576.959 471.905 548.736 461.378 534.826 460.548C533.731 460.483 532.671 460.441 531.577 460.532ZM542.887 720.453C562.665 717.643 588.391 709.659 605.346 699.059C570.956 698.858 534.517 696.671 501.07 688.388C494.536 686.77 487.412 685.105 481.369 682.132C478.454 680.698 473.109 675.207 470.332 675.1Q439.384 681.609 408.919 690.1C442.659 710.625 470.111 721.143 510.073 722.445C520.806 722.794 532.343 722.862 542.887 720.453ZM642.058 672.187C646.313 667.956 650.732 663.806 654.834 659.43Q647.317 660.662 639.758 661.607Q632.199 662.552 624.61 663.21Q617.021 663.867 609.412 664.236Q601.803 664.604 594.186 664.684Q586.569 664.763 578.954 664.553Q571.339 664.343 563.738 663.843Q556.137 663.344 548.56 662.557Q540.983 661.769 533.442 660.694C521.905 659.102 509.658 657.305 498.564 653.728C491.522 651.457 484.904 647.944 478.271 644.707C478.098 652.457 478.253 660.208 478.082 667.952C484.648 674.041 494.808 676.252 503.306 678.41C535.922 686.69 580.18 690.453 614.001 688.978C616.54 688.867 619.242 688.618 621.617 687.677C627.887 685.192 637.201 677.044 642.058 672.187ZM386.073 269.894L388.758 268.422Q392.176 266.186 395.803 264.307Q399.431 262.428 403.229 260.925C395.389 251.436 395.651 241.276 394.918 229.597C390.087 224.664 383.064 220.162 375.916 220.007C374.67 219.98 373.423 220.042 372.18 220.109C368.243 221.134 365.585 223.11 363.554 226.707C360.305 232.462 359.345 241.149 361.165 247.452C363.151 254.331 367.995 261.319 374.32 264.731C378.087 266.763 382.287 267.912 386.073 269.894ZM519.659 528.816C513.069 537.493 505.872 545.532 496.796 551.698C487.293 558.153 476.27 561.169 466.074 566.255C458.248 570.158 450.845 574.968 442.976 578.734C431.687 584.135 419.942 588.68 408.604 594.04C395.494 600.238 382.814 607.264 369.81 613.668C362.816 617.112 355.216 619.943 348.425 623.686C357.123 641.202 371.49 658.09 385.954 671.182C390.641 675.748 395.922 679.588 400.893 683.824C413.726 676.601 428.069 674.701 442.223 671.317C450.736 669.282 459.251 666.803 467.86 665.234C467.989 652.617 466.596 629.425 476.158 619.91C490.357 605.781 523.387 605.5 542.322 601.811C535.106 586.956 525.303 567.504 523.761 551.041C523.318 546.313 523.32 541.694 523.671 536.964C523.78 535.491 524.582 531.598 524.208 530.337C524.084 529.921 523.608 529.711 523.308 529.398C522.045 529.084 520.97 528.862 519.659 528.816ZM655.994 556.534C653.976 558.937 653.29 563.112 652.438 566.14L659.213 565.313C660.77 564.419 662.492 563.52 663.019 561.663C663.234 560.908 663.008 560.243 662.661 559.554C661.723 557.69 659.366 557.042 657.51 556.748Q656.753 556.631 655.994 556.534ZM654.948 598.865C656.37 598.591 657.813 598.39 658.657 597.042C659.418 595.825 659.307 595.209 659.118 593.887C658.069 592.282 656.945 591.393 655.038 590.954C651.629 590.171 646.672 590.995 643.128 590.985C641.694 594.001 640.329 597.082 638.785 600.041C644.277 600.014 649.537 600.002 654.948 598.865ZM649.829 573.954Q648.042 578.451 646.42 583.011C650.753 582.989 655.008 582.804 659.324 582.422C660.807 581.282 662.832 579.963 663.213 577.998C663.356 577.262 663.008 576.875 662.71 576.229C659.285 573.395 654.008 573.88 649.829 573.954ZM563.694 422.054C562.266 422.547 560.57 422.933 559.862 424.412C557.848 428.614 561.932 435.68 563.649 439.483C567.142 447.218 566.848 450.095 566.436 458.53C576.416 463.152 592.506 471.362 596.543 482.337C598.16 486.733 597.302 490.042 595.312 494.078C595.126 494.456 594.929 494.829 594.733 495.202C598.121 498.709 599.78 502.011 599.726 507.022C599.689 510.483 598.547 513.945 596.004 516.376C594.125 518.171 592.101 518.708 589.636 519.301C589.521 519.329 589.407 519.36 589.292 519.389C587.829 522.957 586.474 526.995 582.678 528.702C579.829 529.982 576.708 529.545 573.749 528.937C572.626 532.745 571.649 535.451 567.861 537.378C558.545 542.117 543.515 534.01 534.302 531.572C532.878 538.121 532.337 545.175 533.588 551.809C537.03 570.072 546.924 587.687 553.88 604.847C555.786 609.551 558.044 617.924 560.563 621.868C562.986 625.662 570.877 626.594 574.957 627.264L576.059 627.442C590.141 627.826 608.021 629.873 621.017 623.769C623.138 617.229 624.055 610.436 626.467 603.962C628.963 597.262 632.136 590.722 634.998 584.169C644.285 562.904 648.745 547.678 648.326 524.171C648.178 515.871 647.787 508.117 643.976 500.582C640.667 494.042 636.173 487.032 631.581 481.323C621.015 468.187 613.213 462.234 618.963 443.882C620.581 438.718 625.016 430.426 624.297 425.117C623.566 424.007 623.393 423.961 622.035 423.663C613.906 421.884 596.196 422.41 587.379 422.346C579.464 422.288 571.621 421.822 563.694 422.054ZM583.416 193.383C574.048 169.126 556.576 147.649 532.507 136.907C517.933 130.403 500.893 126.283 484.821 127.725C461 129.607 439.462 138.774 423.816 157.221C408.414 175.381 405.189 193.602 404.021 216.538L404.641 216.523C404.488 217.16 404.628 216.801 404.075 217.532L404.251 217.8C408.229 211.881 412.13 205.881 416.531 200.264C420.236 195.535 436.984 177.177 441.912 176.01C443.046 175.742 444.283 175.99 445.183 176.744C446.306 177.684 447.124 179.753 446.875 181.201C446.199 185.126 410.002 219.01 405.797 236.221C404.947 239.703 405.96 243.688 406.119 247.234C408.879 245.427 411.611 243.608 414.52 242.046C426.912 235.647 439.501 229.494 452.435 224.259C482.62 212.04 552.96 189.111 583.416 193.383Z"/>
		<path fill="#D09A45" transform="translate(-260.846 -54.9077)" d="M533.452 231.156C535.747 230.944 538.101 230.985 540.404 231.031C548.269 231.186 562.934 232.889 568.434 239.107C569.317 240.105 569.701 240.977 569.637 242.324C569.156 243.501 568.389 244.267 567.259 244.846C563.345 246.853 559.382 243.812 555.49 242.769L554.923 242.622C548.291 241.158 538.59 239.401 531.89 241.024C529.461 241.613 527.261 242.985 524.884 243.744C523.305 244.249 521.668 244.466 520.191 243.522C518.997 242.758 517.998 241.553 517.676 240.17C517.398 238.976 517.941 237.976 518.677 237.063C521.826 233.156 528.791 231.747 533.452 231.156Z"/>
		<path fill="#D09A45" transform="translate(-260.846 -54.9077)" d="M525.313 258.898C531.159 259.068 532.887 264.713 538.259 265.846C540.373 266.292 542.937 266.01 545.099 265.948C546.712 264.391 548.392 262.49 550.695 262.053C552.596 261.692 554.027 262.028 555.606 263.087C556.128 263.854 556.539 264.43 556.576 265.4C556.664 267.736 555.442 269.298 553.97 270.947C550.785 273.358 547.746 274.546 543.757 274.93C537.247 275.557 530.225 273.555 525.262 269.216C523.645 267.803 522.22 265.891 522.321 263.635C522.422 261.384 523.733 260.26 525.313 258.898Z"/>
	</g>
</svg>
