<svg xmlns="http://www.w3.org/2000/svg" version="1.1" xmlns:xlink="http://www.w3.org/1999/xlink" width="512" height="512" x="0" y="0" viewBox="0 0 24 24" style="enable-background:new 0 0 512 512" xml:space="preserve" class=""><rect xmlns="http://www.w3.org/2000/svg" x="0" y="0" width="24" height="24" fill="#1a4d2e" transform="matrix(1,0,0,1,0,0)" />
<g transform="matrix(0.7,0,0,0.7,3.6001052141189582,3.6000005543231968)"><g fill="#000"><path fill-rule="evenodd" d="M6.25 6a5.75 5.75 0 1 1 11.5 0 5.75 5.75 0 0 1-11.5 0z" clip-rule="evenodd" fill="#d09a45" opacity="1" data-original="#000000" class=""></path><path d="M2.548 17.019A11.734 11.734 0 0 1 12 12.25c3.876 0 7.313 1.877 9.452 4.769.432.583.432 1.379 0 1.962A11.734 11.734 0 0 1 12 23.75a11.734 11.734 0 0 1-9.452-4.769 1.65 1.65 0 0 1 0-1.962z" fill="#d09a45" opacity="1" data-original="#000000" class=""></path></g></g></svg>